<svg xmlns="http://www.w3.org/2000/svg" width="24" height="24" viewBox="0 0 240 240" preserveAspectRatio="xMidYMid meet">
	<g fill="#000">
		<path d="M168 28c1-10 4-26-1-26-4 0-6 10-14 10-8 0-6-10-10-10h-1c-4-1-5 10-13 10-9 0-10-11-14-11h-2c-3-1-7 11-15 11s-6-11-10-12h-3c-4 0-7 13-15 13-11 0-5-8-9-12-3-2-6 2-8 15l-5 22-28 178v3l4 2h110c3 0 5-2 5-5l29-186zm-68 128s-1 0 0-1v-1l1 1-1 1zm-4-5v7h-5v-7h-1c-6-2-11-5-13-10-2-2-3-6-2-11 1-4 4-10 0-14-3-3-7 2-7 2l-6-7c10-11 20-11 23-7 5 3 3 9 2 14-2 6-1 9 2 10 2 0 5-2 7-6a40 40 90 003-15l2-13h-5c-1 0-4-2-3-5 0-3 3-4 5-3 2 0 2 2 2 2s1-2 4-2c3 0 4 3 4 3l8-3-2 5 3 1-3 2c3 2 2 5 0 6l6 21c3 20-13 30-24 30zm5 4zm-1-1zm1 1v1z"/>
		<path d="M101 154v1h1zm9-62-1 2 1 1c1 0 2-1 1-2 0 0 0-1-2 0zm78 103a6 6 90 00-8 0l-28 23 1 2h58s1-1 0-2l-23-23z"/>
		<path d="M205 16v-2l-5-12c-2 0-3 8-8 8-4 0-6-8-8-8-4 0-5 14-5 17l-29 191c0 1 1 2 2 1l22-23c2-2 5-4 9-5l7 2 7 7 20 20c0 2 1 0 1 0l-13-196z"/>
	</g>
</svg>
