<svg width="44" height="44" viewBox="0 0 44 44" fill="none" xmlns="http://www.w3.org/2000/svg">
<path fill-rule="evenodd" clip-rule="evenodd" d="M33.8882 6.67356L34.8611 5.70144L34.1976 5.038C33.869 4.70869 33.6875 4.27075 33.6875 3.80531C33.6875 2.84487 34.4699 2.0625 35.431 2.0625H39.1875C39.9458 2.0625 40.5625 2.67919 40.5625 3.4375H41.9375C41.9375 1.92087 40.7041 0.6875 39.1875 0.6875H35.431C33.7116 0.6875 32.3125 2.08587 32.3125 3.80531C32.3125 4.63787 32.637 5.42162 33.2255 6.01012L33.8882 6.67356ZM35.0625 8.93765V8.66609C35.0625 6.88409 35.948 5.22859 37.4316 4.24065L38.1941 5.38465C37.0941 6.11753 36.4375 7.34402 36.4375 8.66609V8.93765H35.0625ZM27.9861 12.5764L27.0139 13.5486L25.806 12.3399C25.1247 11.66 24.75 10.7546 24.75 9.79138C24.75 7.8045 26.367 6.1875 28.3546 6.1875H30.9375V7.5625H28.3546C27.1253 7.5625 26.125 8.56212 26.125 9.79138C26.125 10.3874 26.3567 10.9471 26.7774 11.3671L27.9861 12.5764ZM2.34781 17.1875L3.18313 18.0235C2.91844 18.4126 2.67094 18.8141 2.44475 19.2294L1.375 18.1596C0.931563 17.7162 0.6875 17.1263 0.6875 16.5C0.6875 15.8737 0.931563 15.2838 1.375 14.8404L3.84037 12.375C4.72587 11.4888 6.27413 11.4888 7.16031 12.375L8.22869 13.4447C7.81413 13.6709 7.41194 13.9184 7.02281 14.1831L6.1875 13.3471C5.81969 12.9793 5.17894 12.9793 4.8125 13.3471L2.34713 15.8125C2.16356 15.9967 2.0625 16.2401 2.0625 16.5C2.0625 16.7599 2.16356 17.0032 2.34781 17.1875ZM19.9375 35.75C19.9375 36.1297 19.6297 36.4375 19.25 36.4375C18.8703 36.4375 18.5625 36.1297 18.5625 35.75C18.5625 35.3703 18.8703 35.0625 19.25 35.0625C19.6297 35.0625 19.9375 35.3703 19.9375 35.75ZM35.028 24.1154C35.0507 24.024 35.0624 23.9298 35.0624 23.8363C35.0624 23.2031 34.5468 22.6875 33.9136 22.6875H22.2846L13.2164 31.7556C13.51 33.2248 14.2167 34.5565 15.2817 35.6214L16.0971 36.4375H17.3139C17.2369 36.2216 17.1874 35.992 17.1874 35.75C17.1874 34.6129 18.1128 33.6875 19.2499 33.6875C19.3716 33.6875 19.4892 33.7033 19.6054 33.7232C19.7057 33.5424 19.8185 33.3706 19.9546 33.2193C19.9528 33.1862 19.9499 33.1532 19.947 33.1202C19.9422 33.0662 19.9374 33.012 19.9374 32.9574C19.9374 29.5694 22.6936 26.8125 26.0816 26.8125C26.6282 26.8125 27.172 26.8847 27.6986 27.0284L33.8786 28.7141L35.028 24.1154ZM23.3752 35.0625C23.3752 35.8208 22.7585 36.4375 22.0002 36.4375C21.7328 36.4375 21.477 36.3536 21.2564 36.2113C21.2907 36.0621 21.3127 35.9088 21.3127 35.75C21.3127 35.2323 21.114 34.7641 20.7978 34.4011C21.0343 33.9694 21.486 33.6875 22.0002 33.6875C22.7585 33.6875 23.3752 34.3042 23.3752 35.0625ZM24.7933 36.4375C26.8297 36.4375 28.8372 35.7486 30.4446 34.4987L33.6875 31.9763V30.0877L27.3364 28.3552C26.928 28.2439 26.5059 28.1875 26.0817 28.1875C23.6411 28.1875 21.6253 30.0314 21.3483 32.3991C21.5586 32.3482 21.7745 32.3125 22 32.3125C23.5167 32.3125 24.75 33.5459 24.75 35.0625C24.75 35.5658 24.6043 36.0312 24.3678 36.4375H24.7933ZM34.5256 41.9375H14.9745L14.6307 40.5625H34.8694L34.5256 41.9375ZM15.125 13.0625C7.92206 13.0625 2.0625 18.9221 2.0625 26.125C2.0625 30.0156 3.83075 33.7411 6.82 36.2072L25.2072 17.8207C22.7418 14.8307 19.0163 13.0625 15.125 13.0625ZM41.5862 30.4535L41.1682 30.9155L41.5862 31.3775C41.8818 31.7041 41.9987 32.1482 41.9059 32.5951C41.7973 33.1155 41.3552 33.5459 40.8293 33.6408C40.1713 33.759 39.5402 33.4215 39.2906 32.8165C38.9868 32.0788 38.2498 31.603 37.4083 31.603L35.0625 31.6202V30.2452L37.4138 30.228C38.2504 30.228 38.9874 29.7509 39.2913 29.0139C39.5409 28.4096 40.1713 28.0693 40.83 28.1903C41.3552 28.2852 41.798 28.7155 41.9059 29.236C41.9987 29.6835 41.8825 30.127 41.5862 30.4535ZM13.0625 37.8125H36.4382V39.1875H13.0625V37.8125ZM29.5625 11.6875C30.3208 11.6875 30.9375 12.3042 30.9375 13.0625C30.9375 13.8208 30.3208 14.4375 29.5625 14.4375V15.8125C31.0791 15.8125 32.3125 14.5791 32.3125 13.0625C32.3125 11.5459 31.0791 10.3125 29.5625 10.3125V11.6875ZM40.7798 6.22224L41.2115 6.36593C42.4683 6.7853 43.3125 7.9568 43.3125 9.28093C43.3125 10.6051 42.4683 11.7766 41.2115 12.1952L40.4814 12.4386C40.5322 12.7074 40.5618 12.9804 40.5618 13.2574C40.5618 15.4457 38.9283 17.3295 36.762 17.6389L32.3888 18.2638C31.5618 18.3821 30.9375 19.1012 30.9375 19.9372H29.5625C29.5625 18.4212 30.6941 17.1164 32.1943 16.9026L36.5674 16.2776C38.0614 16.0638 39.1875 14.7658 39.1875 13.2574C39.1875 13.1441 39.1739 13.033 39.1602 12.9216C39.1585 12.908 39.1568 12.8943 39.1552 12.8807L36.6548 13.7139L36.2202 12.4104L40.777 10.8917C41.4714 10.6601 41.9375 10.0124 41.9375 9.28093C41.9375 8.54943 41.4714 7.9018 40.777 7.67011L40.3459 7.52711L40.7798 6.22224Z" fill="#1F1F1F"/>
</svg>
