<svg width="42" height="42" viewBox="0 0 42 42" fill="none" xmlns="http://www.w3.org/2000/svg">
<path d="M37.7727 19.3403C36.511 20.7566 35.275 22.2823 34.4123 24.3872C34.0197 25.3592 33.0863 25.9901 32.0369 25.9901C30.9812 25.9901 30.0478 25.3592 29.6488 24.3808C28.6509 21.9345 27.1381 20.2674 25.6704 18.658C25.3035 18.2525 24.9365 17.8469 24.5761 17.4284C24.5568 17.4349 24.5438 17.4413 24.5246 17.4477C23.0955 17.879 21.9947 19.7716 22.6578 21.3102C23.1084 22.3658 26.2691 22.1663 25.9988 24.4387C25.7735 26.299 28.2067 26.7883 29.0693 26.6982C29.932 26.5952 31.2581 28.1145 30.5886 28.784C29.9256 29.4535 28.6702 29.4792 28.8633 31.2044C28.9148 31.7065 30.4341 31.6422 30.4341 32.4018C30.4341 33.1678 29.6488 34.0369 30.2539 34.9188C30.3827 35.1119 30.5178 35.26 30.6594 35.3758C27.7498 38.0538 23.868 39.6953 19.6129 39.6953C10.6199 39.6953 3.30702 32.3824 3.30702 23.3894C3.30702 20.66 3.983 18.085 5.17389 15.8191C5.16744 18.7481 6.73173 21.1814 7.46557 21.9152C9.86025 24.3035 13.3301 23.5503 13.7741 25.5523C14.2248 27.5479 11.3923 27.5544 11.579 29.0799C11.7721 30.6121 15.4607 31.0176 14.6368 32.4274C13.5488 34.3006 15.3706 34.4358 14.8428 36.7468C14.5596 38.0086 16.3813 38.2532 17.0573 37.294C17.5723 36.5602 17.4693 35.6589 18.5057 34.5582C19.7738 33.2063 22.7157 32.9875 22.3874 30.7536C21.8274 27.0458 18.2224 26.4663 16.6517 25.5972C14.8685 24.6188 15.3063 22.2692 14.92 21.1491C14.3793 19.5591 12.5446 21.5933 11.5661 20.6663C9.95681 19.1471 11.8558 16.997 13.2076 17.0421C16.0594 17.1322 16.9349 19.9067 17.9841 19.8101C19.0077 19.72 19.6708 18.2909 19.851 17.5313C20.2308 15.8769 19.2072 16.6172 18.7953 15.7546C18.2417 14.6023 20.7393 13.5015 21.7049 12.6518C21.853 12.523 21.9624 12.4007 22.0203 12.2848C22.3102 11.7184 21.9303 11.287 21.2865 10.8944C19.9991 10.1154 17.6495 9.49745 17.5401 8.28082C17.4756 7.53402 18.9048 7.17358 20.5334 7.10921C20.8037 7.12211 21.0677 7.14785 21.3381 7.17358C21.4732 6.4075 21.6921 5.65431 21.9882 4.93338C21.2093 4.83037 20.4176 4.77883 19.6128 4.77883C9.35166 4.77883 1.00244 13.128 1.00244 23.3892C1.00237 33.6507 9.35166 42 19.6128 42C29.874 42 38.2234 33.6507 38.2234 23.3895C38.2234 21.999 38.0688 20.6408 37.7727 19.3403ZM31.1612 0.0413389C25.9077 0.537927 22.3094 5.62851 23.2263 10.8253C24.1575 16.1042 29.0247 17.7291 31.4401 23.6547C31.6578 24.1887 32.4096 24.1913 32.6271 23.6573C35.3047 17.0851 40.998 15.8025 40.998 8.96373C40.9979 3.72519 36.5042 -0.463691 31.1612 0.0413389ZM32.0341 13.6975C29.4197 13.6975 27.3003 11.5782 27.3003 8.96373C27.3003 6.34937 29.4197 4.23002 32.0341 4.23002C34.6486 4.23002 36.7678 6.34937 36.7678 8.96373C36.7678 11.5781 34.6484 13.6975 32.0341 13.6975Z" fill="#1F1F1F"/>
</svg>
