<svg width="220" height="205" viewBox="0 0 220 205" fill="none" xmlns="http://www.w3.org/2000/svg">
<g clip-path="url(#clip0_1261_223009)">
<path d="M10.16 134.273L19.4434 145.375C19.4434 145.375 24.42 138.101 30.4494 142.982C36.5745 147.863 32.2678 157.816 31.6936 163.559C31.0236 170.928 32.7463 176.766 35.7132 181.551C39.4456 187.581 48.1548 192.557 57.5338 194.28C58.2037 194.376 58.9694 194.471 59.6393 194.567L60.5964 204.903H67.5828L68.5398 194.854C84.7139 193.514 107.587 177.723 97.3469 151.117C92.6574 138.867 82.7041 120.587 82.7041 120.587H82.7998C86.7237 119.63 87.4893 114.462 82.8955 111.782L86.1495 108.72L81.3643 106.71L83.1826 100.202L72.8465 104.318C72.8465 104.318 70.2625 98.8624 66.2429 98.8624C62.8933 98.8624 61.362 101.255 61.362 101.255C61.362 101.255 60.5007 98.7666 58.2037 98.0967C55.9068 97.4268 52.1744 98.7666 51.6958 102.882C51.1216 107.571 54.9498 109.964 56.1939 110.347C57.6295 110.825 59.735 111.782 63.946 109.964C63.946 114.271 63.946 124.128 63.946 129.105C63.946 135.517 64.5202 146.045 61.7448 151.691C58.9694 157.338 55.8111 159.73 51.6001 159.252C46.9106 158.678 45.3793 154.371 46.9106 146.236C48.5376 138.101 49.8774 130.062 43.0824 124.033C36.4788 117.908 24.3243 117.238 10.16 134.273ZM73.8993 108.241C74.952 107.667 76.2919 108.241 76.8661 109.39C77.4404 110.538 77.1533 111.974 76.1005 112.548C75.0478 113.122 73.7079 112.548 73.1337 111.4C72.4637 110.155 72.8465 108.72 73.8993 108.241Z" fill="white"/>
<path fill-rule="evenodd" clip-rule="evenodd" d="M72.39 199.13H73.6128V202.447H74.1663V199.13H75.3955V198.648H72.3965L72.39 199.13ZM76.702 198.66L77.9956 201.378L79.2892 198.66H80.01V202.458H79.4823V199.406L78.2595 201.936H77.7382L76.5154 199.412V202.458H75.9812V198.66H76.6956H76.702Z" fill="white"/>
</g>
<path d="M114.558 60.7293C115.328 61.2406 115.067 62.6155 115.269 63.4267C115.623 64.6297 116.039 65.8138 116.514 66.9745C116.785 67.7249 117.231 68.4001 117.815 68.9443C118.633 69.8526 119.257 70.9179 119.649 72.0754C121.25 76.1101 122.151 80.4121 123.582 84.5198C124.111 86.0492 124.717 87.141 126.537 86.8138C127.502 86.6663 128.407 86.2491 129.146 85.6102C129.388 85.2277 129.17 84.6453 129.009 84.2221C127.496 79.7337 125.312 75.3658 123.505 70.9725C122.411 68.344 121.29 65.565 120.263 62.8396C119.964 62.2511 119.747 61.6249 119.617 60.978C119.597 60.0776 120.74 59.3636 121.446 58.9683C122.721 58.2022 125.611 59.0386 126.354 57.7468C126.443 57.5455 126.49 57.328 126.493 57.1077C126.495 56.8875 126.452 56.6691 126.366 56.466C126.281 56.263 126.155 56.0797 125.996 55.9273C125.837 55.7749 125.648 55.6567 125.442 55.58C124.554 55.3752 123.625 55.4485 122.781 55.7899C118.458 56.9628 114.077 57.8209 109.651 58.6591C106.914 59.1511 103.702 59.4321 101.15 60.6395C100.195 61.0228 99.3785 61.6868 98.8085 62.5438C98.4203 63.2916 98.7049 63.3817 99.6619 63.6758C100.933 64.0688 101.901 63.4004 103.097 63.0583C104.517 62.758 105.961 62.5882 107.413 62.5507C108.553 62.3955 109.666 62.0813 110.72 61.6171C111.678 61.134 113.456 60.0233 114.558 60.7293Z" fill="white"/>
<path d="M145.801 72.0209C145.907 69.6285 144.419 67.7914 143.788 65.6164C143.324 64.0998 142.759 62.6156 142.099 61.1736C140.729 58.3648 139.633 55.4299 138.828 52.4102C138.609 51.1923 137.773 48.5033 135.878 49.7481C134.436 50.6854 136.01 53.3124 136.475 54.486C137.897 58.0727 139.691 61.6066 140.874 65.2786C141.364 67.6241 142.047 69.9251 142.916 72.1582C143.443 73.2076 145.709 73.7891 145.801 72.0209Z" fill="white"/>
<path d="M140.001 67.4979C139.063 67.4206 138.12 67.4387 137.186 67.552C136.488 67.6775 135.099 68.2804 134.464 68.1262C133.828 67.972 133.083 65.9448 132.73 65.1606C132.28 64.2554 131.925 63.3063 131.67 62.3282C131.554 61.6851 131.63 60.8521 131.091 60.3698C130.21 59.5535 127.715 59.9739 127.503 61.3115C127.337 62.4292 128.584 64.1825 129.054 65.1435C129.772 66.6247 130.529 68.0849 131.259 69.55C132.142 71.1243 132.84 72.7952 133.341 74.5295C133.697 75.9936 134.222 77.4114 134.905 78.7544C134.961 78.8601 135.038 78.9525 135.133 79.0251C135.227 79.0978 135.336 79.149 135.453 79.1751C135.569 79.2013 135.689 79.2017 135.806 79.1765C135.922 79.1513 136.032 79.101 136.127 79.0291C136.285 78.9111 136.422 78.7672 136.531 78.6034C136.89 77.6764 137.053 76.6851 137.01 75.692C137.023 74.7725 136.743 73.8729 136.21 73.1237C135.792 72.4501 134.992 71.7745 135.546 71.0817C136.099 70.3889 137.176 70.5626 137.784 70.4109C138.492 70.236 139.189 70.0211 139.872 69.7671C141.214 69.3706 142.002 67.7033 140.001 67.4979Z" fill="white"/>
<path d="M105.367 47.3228C105.478 46.1304 108.131 46.9813 108.92 47.0512C110.561 47.2217 112.218 46.9676 113.732 46.3133C115.081 45.6167 116.194 44.5368 116.931 43.2095C117.218 42.55 117.436 41.8623 117.58 41.1577C117.512 40.8606 117.417 40.5703 117.297 40.2903C117.154 39.8639 117.017 39.4176 116.886 38.9515C116.621 38.0245 116.396 37.0902 116.199 36.1509C115.815 34.2621 115.56 32.3491 115.438 30.4254C115.311 28.4557 115.305 26.4802 115.42 24.5098C115.51 22.6412 115.925 20.8025 116.647 19.0767C116.78 18.7984 116.912 18.5064 117.059 18.2257C118.107 16.2007 120.502 13.8066 122.605 16.1549C125.216 19.0475 124.855 23.873 124.525 27.3791C124.083 30.5717 123.219 33.6913 121.955 36.6559C121.33 38.09 120.88 39.5938 120.613 41.135C120.701 41.6276 123.631 44.9574 127.14 44.2841C128.426 44.0561 129.611 43.4382 130.534 42.5142C131.457 41.5902 132.073 40.4048 132.3 39.1186C132.593 37.3456 132.743 35.5519 132.748 33.7548C132.872 32.0728 133.524 30.4728 134.61 29.1822C135.203 28.3496 135.964 27.6496 136.843 27.1268C137.721 26.604 138.699 26.2698 139.714 26.1456C140.705 26.0408 141.705 26.2334 142.586 26.6988C143.468 27.1643 144.19 27.8816 144.662 28.7593C145.483 30.6518 145.811 32.7213 145.617 34.7749C145.605 35.2574 145.568 35.7585 145.521 36.2048C145.427 37.3883 145.075 38.5369 144.49 39.5696C143.904 40.6024 143.099 41.4941 142.131 42.1821C140.991 42.9698 139.624 43.3638 138.239 43.3043C136.855 43.2448 135.527 42.7351 134.458 41.8524C134.334 43.5753 133.62 45.2027 132.436 46.4603C131.252 47.7179 129.67 48.5288 127.958 48.7562C124.282 49.2899 121.943 46.7299 119.427 44.4418C117.857 46.391 116.323 48.941 113.896 49.9C113.014 50.1986 112.091 50.3644 111.16 50.3921L110.636 50.3873C109.834 50.3654 109.042 50.1966 108.301 49.889C106.997 49.4736 105.241 48.5885 105.367 47.3228ZM136.509 38.7998C136.949 39.0137 137.43 39.1328 137.92 39.1494C138.409 39.166 138.897 39.0797 139.351 38.8962C141.443 38.0397 142.138 34.5952 141.715 32.637C141.58 31.8844 141.241 31.1824 141.079 30.4347C141.051 29.7813 140.912 29.1374 140.666 28.5313C139.817 27.1866 138.241 27.8513 137.446 28.7712C136.526 29.6474 135.83 30.7308 135.414 31.931C134.998 33.1312 134.875 34.4134 135.056 35.6707C135.243 36.8661 135.346 38.1471 136.509 38.7998ZM118.11 34.1264C118.362 35.0758 118.707 35.9979 119.141 36.8792C119.141 36.8792 119.154 36.9476 119.223 36.8644C120.672 35.4173 120.886 32.4407 121.263 30.6072C122.069 27.6918 122.535 24.6927 122.651 21.6701C122.623 20.7286 122.36 19.349 121.058 19.5691C119.756 19.7891 118.663 21.9632 118.271 23.0791C117.737 24.6683 117.469 26.3344 117.476 28.0107C117.392 30.0691 117.605 32.129 118.11 34.1264Z" fill="white"/>
<path d="M162.908 59.4521L162.938 59.6163C162.999 61.013 162.566 62.3865 161.714 63.495C161.276 63.9286 160.75 64.2619 160.17 64.472C159.591 64.6821 158.973 64.7639 158.359 64.7117C157.746 64.6595 157.15 64.4747 156.615 64.1698C156.079 63.865 155.617 63.4476 155.258 62.9464C155.29 63.1242 154.077 64.2323 153.969 64.3366C153.179 64.9944 152.207 65.3954 151.184 65.4861C150.16 65.5767 149.133 65.3527 148.24 64.8439C145.323 63.0798 145.678 58.4533 148.132 56.3876C148.867 55.7889 149.744 55.3883 150.677 55.2236C151.725 55.0601 152.788 55.0158 153.846 55.0918C153.801 54.7376 153.738 54.386 153.657 54.0382C153.523 53.6713 153.278 53.3551 152.957 53.1327C152.31 52.6573 151.539 52.379 150.737 52.3313C149.887 52.3007 149.047 52.5205 148.322 52.9632C147.988 53.2009 147.576 53.3003 147.171 53.2407C146.735 53.0931 146.804 52.4591 146.969 52.1187C147.086 51.8449 147.251 51.5949 147.458 51.381C148.01 50.7689 148.683 50.2787 149.435 49.9417C150.187 49.6046 151 49.4281 151.824 49.4235C152.699 49.403 153.561 49.6469 154.295 50.1235C156.698 51.7821 156.976 54.1902 157.479 56.9108C157.666 57.9508 158.172 63.0441 160.312 61.6704C160.676 61.3753 160.974 61.0069 161.186 60.589C161.398 60.1712 161.52 59.7134 161.543 59.2455C161.54 58.7155 161.572 58.1858 161.64 57.6601C161.786 56.9839 162.472 57.1855 162.716 57.6784C162.916 58.2471 162.981 58.854 162.908 59.4521ZM154.206 58.1915C154.181 58.0546 154.07 57.4388 154.07 57.4388C153.274 57.2776 152.448 57.3525 151.694 57.6543C150.898 57.9448 150.233 58.5103 149.819 59.2485C149.519 59.7811 149.364 60.3832 149.37 60.9946C149.376 61.6059 149.542 62.2049 149.852 62.7318C150.029 63.0169 150.302 63.2286 150.623 63.3277C150.862 63.3556 151.104 63.3349 151.334 63.2667C151.565 63.1986 151.779 63.0844 151.964 62.9312C152.864 62.4141 153.621 61.6809 154.166 60.7978C154.492 59.9519 154.518 59.02 154.242 58.1567L154.206 58.1915Z" fill="white"/>
<path d="M142.545 20.2826C143.87 22.2262 145.3 24.0958 146.829 25.8832C148.885 28.6778 151.064 31.3657 153.294 34.03C154.653 35.9925 156.224 37.7992 157.978 39.4175C158.108 39.5485 158.268 39.646 158.444 39.7016C158.621 39.7571 158.807 39.7691 158.989 39.7364C159.171 39.7037 159.342 39.6274 159.488 39.514C159.633 39.4006 159.749 39.2535 159.826 39.0854C160.534 37.9974 159.96 36.9281 159.572 35.8678C158.659 33.461 158.987 30.4921 158.769 27.9461C158.559 24.3409 158.703 20.7237 159.201 17.1468C159.254 16.6569 159.291 16.1558 159.312 15.6435C159.378 14.3603 159.627 13.0725 159.636 11.7855C159.569 11.416 159.587 11.0454 159.546 10.6574C159.504 10.2693 159.447 10.11 159.398 9.83634C159.299 9.31021 159.069 8.81733 158.731 8.40249C157.676 7.25013 157.28 9.21414 157.17 10.0956C156.941 11.8038 156.695 13.5007 156.568 15.2328C156.294 19.3645 156.295 23.5316 155.78 27.6642L155.734 28.1105C155.696 28.3716 155.658 28.6326 155.634 28.8913C155.61 29.1499 155.562 29.5117 155.531 29.8138C155.501 30.1159 155.47 30.418 155.454 30.7177C155.432 30.9395 155.424 31.1626 155.432 31.3854L155.482 31.6591C155.482 31.6591 155.496 31.7412 155.482 31.6591L155.371 31.5942C155.228 31.4934 155.095 31.3804 154.971 31.2564C154.753 31.0506 154.552 30.8268 154.371 30.5875C154.171 30.3409 153.996 30.0756 153.808 29.8129L153.351 29.1604C153.305 29.0741 153.248 28.9942 153.181 28.9225C151.559 26.8128 149.833 24.8346 148.285 22.669C147.404 21.0667 146.303 19.5957 145.014 18.299C144.715 18.1009 144.374 17.9781 144.018 17.9412C143.662 17.9044 143.302 17.9545 142.97 18.0873C142.182 18.3419 142.005 18.7694 142.545 20.2826Z" fill="white"/>
<path d="M164.973 42.4971C164.692 43.0255 164.56 43.6207 164.591 44.2186C164.816 45.8621 165.179 47.4839 165.674 49.0669C165.674 49.0669 164.119 49.6856 163.987 49.7376C163.552 49.9145 163.111 50.0505 162.665 50.2436C162.22 50.4367 161.117 50.7479 160.925 51.4887C160.386 53.6763 165.885 52.3627 166.891 52.1396C167.048 53.0154 167.342 53.8665 167.541 54.7349C167.738 55.8296 167.937 56.938 168.202 58.0204C168.447 59.0636 168.937 60.0334 169.632 60.8494C170.326 61.6654 171.205 62.3041 172.196 62.7127C173.087 63.113 174.066 63.2805 175.039 63.1993C176.013 63.1181 176.95 62.791 177.763 62.2486C178.285 61.8996 178.65 61.3601 178.78 60.7454C178.91 60.1308 178.794 59.4898 178.457 58.9595C178.26 58.6842 177.969 58.4904 177.639 58.4145C177.385 58.3902 177.129 58.4361 176.9 58.5473C176.076 58.8367 175.883 59.8038 175.1 60.0858C174.621 60.226 174.106 60.177 173.663 59.9487C172.923 59.526 172.299 58.927 171.846 58.205C171.393 57.4829 171.126 56.6602 171.068 55.81C170.643 54.1513 170.339 52.4637 170.16 50.7607C172.453 49.7892 174.839 49.0527 177.28 48.5624C177.828 48.4982 178.354 48.3119 178.821 48.017C179.078 47.8661 179.279 47.6366 179.396 47.3624C179.512 47.0882 179.538 46.7837 179.468 46.494C179.399 46.2042 179.238 45.9445 179.01 45.753C178.781 45.5615 178.498 45.4485 178.2 45.4305C177.091 45.4539 175.992 45.6515 174.943 46.016C173.061 46.4675 171.16 46.894 169.335 47.5047C169.197 46.7384 168.963 45.9893 168.826 45.223C168.688 44.4568 168.594 43.9368 168.479 43.2936C168.294 42.2673 168.032 41.5941 166.867 41.4786C166.486 41.4455 166.104 41.5242 165.768 41.7051C165.432 41.8861 165.155 42.1613 164.973 42.4971Z" fill="white"/>
<path d="M164.429 28.4683C164.257 27.0442 164.406 25.5996 164.866 24.2408C165.325 22.882 166.084 21.6436 167.086 20.6168C167.862 19.8535 168.784 19.2547 169.797 18.8562C170.81 18.4577 171.893 18.2677 172.981 18.2976C174.07 18.3275 175.141 18.5767 176.13 19.0302C177.12 19.4837 178.008 20.1322 178.741 20.9369C180.391 22.8863 181.088 25.1907 178.759 26.8525C177.321 27.7515 175.794 28.4994 174.202 29.0844C172.664 29.8063 171.071 30.4044 169.438 30.8732C170.312 32.6619 171.619 34.2041 173.24 35.3599C174.514 36.4415 176.119 37.055 177.79 37.0986C178.36 37.1139 178.926 36.9983 179.444 36.7607C179.962 36.5231 180.418 36.1697 180.778 35.7279C181.701 34.4178 181.339 32.5617 182.027 31.1243C182.155 30.8208 182.368 30.5613 182.642 30.3781C182.877 30.2728 183.137 30.2349 183.393 30.2688C183.648 30.3027 183.889 30.407 184.089 30.57C184.476 30.908 184.764 31.3442 184.923 31.8326C185.235 32.687 185.354 33.5996 185.273 34.5054C185.192 35.4112 184.912 36.2879 184.453 37.0732C181.528 42.0205 174.21 40.4405 170.194 37.984C168.531 36.9867 167.137 35.5986 166.133 33.9404C165.128 32.2821 164.543 30.4038 164.429 28.4683ZM174.4 25.7857C174.763 25.6073 175.124 25.4153 175.483 25.2095C176.109 24.8427 176.726 24.2656 176.469 23.4643C176.326 23.0757 176.079 22.734 175.754 22.4768C174.805 21.6728 172.714 20.8057 171.494 21.4064C170.754 21.7191 170.099 22.2034 169.583 22.8193C169.068 23.4352 168.706 24.165 168.528 24.9484C168.433 25.9699 168.457 26.9991 168.599 28.0151C168.599 28.0151 171.686 26.9517 172.002 26.8243C172.802 26.5382 173.587 26.2132 174.355 25.8502L174.4 25.7857Z" fill="white"/>
<path d="M145.915 96.7771C145.758 95.9013 145.71 95.0059 145.541 94.1463C145.31 93.4105 144.933 92.7288 144.432 92.142C143.976 91.5231 143.61 90.8419 143.348 90.1191C143.062 89.2381 143.151 88.3181 142.856 87.3823C142.807 87.1483 142.708 86.9279 142.564 86.7372C142.419 86.5465 142.235 86.3902 142.023 86.2796C141.811 86.169 141.577 86.1068 141.339 86.0976C141.1 86.0884 140.862 86.1324 140.642 86.2265C140.041 86.4193 139.604 86.3426 139.096 86.8999C138.99 87.0263 138.916 87.1767 138.881 87.3381C138.846 87.4994 138.851 87.6669 138.896 87.826C139.043 88.7516 139.314 89.6531 139.702 90.5062C139.933 91.2415 139.891 92.0261 140.108 92.764C140.408 93.4152 140.826 94.0057 141.34 94.5061C141.884 95.2558 141.709 95.8524 141.736 96.7092C141.796 97.4949 142.025 98.2584 142.407 98.9477C142.761 99.6609 142.969 100.429 143.39 101.116C144.064 102.195 144.75 101.691 145.654 101.062C146.005 100.884 146.294 100.605 146.484 100.261C146.674 99.9173 146.756 99.5241 146.72 99.1327C146.769 98.1492 146.068 97.6255 145.915 96.7771Z" fill="white"/>
<path d="M180.109 87.0838C178.078 85.4485 175.944 83.9449 173.72 82.582C172.616 81.8623 171.514 81.1563 170.504 80.4057C169.957 80.0378 168.646 79.5813 168.714 78.7781C168.743 78.5494 168.819 78.3291 168.936 78.1307C170.312 75.4113 171.536 72.6344 172.896 69.9037C173.147 69.4867 173.304 69.0197 173.356 68.5355C173.38 68.293 173.328 68.049 173.206 67.8378C173.084 67.6267 172.9 67.4588 172.678 67.3577C172.397 67.3096 172.109 67.3423 171.846 67.4521C171.583 67.5619 171.356 67.7443 171.193 67.9778C170.57 68.7771 170.034 69.6406 169.594 70.5538C168.25 72.9002 166.214 74.9332 164.854 77.2684C164.512 76.4938 164.226 75.6953 164.001 74.8791C163.949 74.4608 163.807 74.0587 163.585 73.701C163.362 73.3434 163.063 73.0387 162.71 72.8085C162.62 72.7569 162.518 72.7281 162.414 72.7246C162.31 72.7212 162.207 72.7432 162.113 72.7887C162.031 72.8639 161.967 72.9583 161.93 73.0636C161.892 73.1689 161.881 73.2819 161.897 73.3926C161.904 74.0599 162.023 74.7214 162.249 75.3494C163.301 78.4516 164.656 81.4289 165.705 84.5174C166.366 86.4611 166.894 88.4568 167.552 90.3868C167.737 91.1079 168.129 91.7591 168.68 92.2606C168.968 92.4894 169.336 92.5943 169.702 92.5524C170.068 92.5104 170.402 92.325 170.631 92.0368C170.731 91.7574 170.767 91.459 170.736 91.1637C170.705 90.8685 170.608 90.584 170.452 90.3316C169.358 87.7031 168.359 85.0573 167.282 82.5246C169.045 82.9274 170.723 83.6397 172.237 84.6285C173.404 85.3794 174.464 86.2482 175.63 86.9991C177.05 87.9022 178.592 88.5432 180.065 89.3519C182.364 90.5913 181.124 87.9326 180.109 87.0838Z" fill="white"/>
<path d="M103.934 74.9425C102.745 74.6335 101.493 74.6739 100.327 75.0589C99.1607 75.444 98.1304 76.1573 97.3597 77.1133C95.4794 79.5432 94.4471 82.5223 94.4207 85.5947C94.0577 90.1432 94.8111 94.7115 96.6155 98.9024C98.074 102.144 101.443 107.838 105.59 107.728C106.497 107.658 107.379 107.398 108.18 106.966C112.627 104.754 117.121 100.047 114.7 94.8318C114.056 93.4502 112.229 92.3237 111.011 93.6444C110.179 94.8386 109.596 96.1877 109.295 97.6117C108.67 99.5603 107.918 103.623 105.477 104.189C103.931 104.551 102.661 102.986 101.889 101.599C98.7094 95.8561 96.1585 88.503 98.6275 81.886C98.9442 80.8358 99.6619 79.9526 100.625 79.4278C101.588 78.903 102.72 78.7787 103.774 79.082C106.348 79.6503 106.815 83.2675 109.426 84.0411C110.066 84.1239 110.714 83.9734 111.252 83.6173C111.789 83.2612 112.181 82.7232 112.355 82.102C112.853 80.7127 111.732 79.8972 110.814 79.0311C108.906 77.1041 106.538 75.6967 103.934 74.9425Z" fill="white"/>
<path d="M158.91 83.4939C157.236 83.6112 156.665 86.7227 156.005 87.8443C155.723 88.4295 155.244 88.8971 154.652 89.1661C154.061 89.435 153.394 89.4882 152.767 89.3165C152.199 89.0485 151.698 88.6556 151.303 88.1671C150.197 86.9972 149.331 85.6221 148.753 84.1193C148.361 83.1418 148.206 82.0851 148.303 81.0362C148.399 79.9873 148.743 78.9764 149.307 78.0867C149.771 77.5543 150.409 77.2043 151.107 77.0991C151.834 76.936 152.591 76.9706 153.3 77.1992C153.974 77.5234 154.606 77.9266 155.183 78.4004C156.239 79.0865 157.885 79.5958 158.755 78.3092C159.626 77.0226 157.663 76.4007 156.69 75.9399C152.914 74.1045 147.784 74.4899 146.231 79.0494C145.655 80.9222 145.718 82.9335 146.411 84.7663C146.867 86.1258 147.603 87.3744 148.572 88.4314C149.541 89.4885 150.72 90.3306 152.035 90.9031C153.141 91.4179 154.404 91.4798 155.555 91.0754C156.792 90.5017 157.974 89.8164 159.086 89.028C159.627 88.748 160.104 88.3597 160.488 87.8872C160.872 87.4147 161.155 86.8682 161.318 86.2816C161.382 85.9339 161.367 85.5764 161.274 85.2353C161.181 84.8943 161.013 84.5783 160.782 84.3109C160.551 84.0434 160.263 83.8311 159.939 83.6897C159.615 83.5483 159.263 83.4814 158.91 83.4939Z" fill="white"/>
<path d="M191.937 72.5691C190.076 72.9037 188.532 74.2972 187.041 75.3562C186.627 75.6427 186.252 75.9926 185.801 76.3138C185.35 76.635 184.709 77.0752 184.156 77.4571L182.64 75.7803L182.909 75.5483C183.836 74.7319 184.702 73.8134 185.694 73.1264C186.687 72.4394 187.384 71.9185 188.271 71.3494C188.348 71.2991 188.412 71.2301 188.457 71.1488C188.501 71.0674 188.524 70.9763 188.525 70.8836C188.525 70.7909 188.502 70.6997 188.458 70.6182C188.414 70.5367 188.35 70.4674 188.272 70.4168C188.054 70.2526 187.796 70.1498 187.525 70.1191C187.253 70.0884 186.979 70.1309 186.729 70.2422C185.823 70.7153 184.979 71.2989 184.217 71.9794C183.718 72.3515 183.271 72.771 182.773 73.143C182.587 73.2894 182.407 73.4632 182.205 73.5983C181.935 73.7757 181.651 73.9306 181.356 74.0617L180.68 73.2086C180.312 72.693 180.003 72.137 179.761 71.5516C181.011 70.6487 182.128 69.7133 183.27 68.7593C184.311 68.1032 185.309 67.3812 186.258 66.5976C186.35 66.478 186.406 66.3351 186.421 66.1851C186.435 66.035 186.407 65.8839 186.34 65.7489C186.274 65.6138 186.17 65.5002 186.042 65.421C185.914 65.3418 185.766 65.3001 185.615 65.3006C182.534 65.5296 180.532 68.0649 177.914 69.6093C176.344 70.5413 175.978 70.8614 177.146 72.4878C178.163 73.9012 179.063 75.2933 180.033 76.7576C180.856 78.0786 181.907 79.2432 183.137 80.1971C184.321 81.0438 185.328 79.8881 186.299 79.1625C187.729 78.1479 189.086 77.0354 190.362 75.8328C190.984 75.2309 191.557 74.58 192.075 73.8863C192.277 73.5957 192.929 72.433 191.937 72.5691Z" fill="white"/>
<path d="M134.747 96.257C134.533 94.9088 134.07 93.6123 133.381 92.4341C133.1 91.8914 132.797 91.2255 132.097 91.1818C131.042 91.1312 130.873 92.2352 131.009 92.9878C131.15 94.5587 132.057 96.3027 130.017 97.1356C129.28 97.457 128.521 97.7256 127.746 97.9394C127.281 98.023 126.802 98.1091 126.378 98.1854C125.971 98.3009 125.554 98.3759 125.132 98.4093C124.941 98.4437 124.849 98.2483 124.765 98.094C124.095 96.8018 123.439 95.5918 122.683 94.3717C122.382 93.5762 121.93 92.8467 121.35 92.2239C120.023 91.3608 119.697 93.3971 119.895 94.2655C120.26 95.8243 120.793 97.4519 121.27 99.0048C122.24 102.122 122.394 105.258 123.091 108.425C123.238 109.246 124.038 110.627 124.965 109.5C125.58 108.754 125.246 107.528 125.02 106.665C124.794 105.802 124.53 104.959 124.348 104.102C124.082 103.344 124.008 102.532 124.135 101.739C124.311 101.227 124.988 100.907 125.459 100.696C127.22 99.8521 129.162 99.4545 131.113 99.5378C131.468 99.5207 131.819 99.6215 132.111 99.8245C132.51 100.274 132.812 100.802 132.997 101.374C133.447 102.789 134.121 104.123 134.992 105.324C136.087 106.54 137.756 106.24 137.653 104.408C137.439 103.303 136.99 102.256 136.338 101.339C135.477 99.7668 134.936 98.0395 134.747 96.257Z" fill="white"/>
<path d="M209.538 64.8705C209.309 64.4168 209.024 63.9935 208.69 63.6103C208.308 63.2129 207.617 62.984 207.287 62.563C206.478 61.5218 206.264 59.4696 205.748 58.2486C204.951 56.3295 204.189 54.2911 203.295 52.4601C202.401 50.629 201.409 49.197 200.417 47.6096C199.613 46.3987 198.965 45.0914 198.488 43.7185C198.073 42.5442 197.363 41.4963 196.426 40.6753C195.489 39.8543 194.358 39.2877 193.139 39.0297C190.26 38.7281 191.775 41.5775 192.531 42.7977C194.353 45.705 196.385 48.5181 198.205 51.4117C199.091 52.8062 200.032 54.1909 200.844 55.6412C201.297 56.4355 201.66 57.2744 202.127 58.0662C202.595 58.858 204.063 60.1902 203.674 61.0089C201.578 59.6481 198.683 59.7307 196.693 58.3229C195.617 57.5869 194.493 56.9253 193.328 56.3427C192.108 55.6862 190.821 55.522 189.566 54.9848C188.131 54.2151 186.602 53.6353 185.018 53.2598C184.742 53.2204 184.461 53.2836 184.228 53.4373C183.996 53.5911 183.827 53.8248 183.756 54.0942C183.404 55.3582 184.885 56.448 185.717 57.146C186.909 58.2018 188.017 59.3486 189.032 60.576C191.175 63.2277 193.906 65.5337 195.591 68.5364C196.09 69.862 196.79 71.1034 197.665 72.2177C198.487 73.0164 200.24 74.1278 200.6 72.354C201.234 69.2028 197.891 67.1904 196.149 65.2011C195.219 64.1111 194.341 62.9977 193.462 61.8842C192.832 61.1089 192.307 60.2531 191.903 59.3394C192.71 59.1942 193.64 59.8887 194.321 60.2183C195.002 60.548 195.752 60.9498 196.469 61.2447C198.097 61.9692 199.776 62.5856 201.436 63.177C203.096 63.7685 204.507 64.546 206.132 65.2568C206.749 65.5415 207.421 66.141 208.097 66.2032C208.772 66.2655 210.029 65.7146 209.538 64.8705Z" fill="white"/>
<path fill-rule="evenodd" clip-rule="evenodd" d="M181.878 17.505L183.195 17.2681L183.838 20.842L184.434 20.7347L183.792 17.1609L185.116 16.9228L185.023 16.4041L181.791 16.9851L181.878 17.505ZM186.433 16.1637L188.353 18.8417L189.22 15.6625L189.997 15.5228L190.733 19.6154L190.164 19.7176L189.573 16.4284L188.745 19.3915L188.184 19.4925L186.377 17.0095L186.967 20.2923L186.392 20.3958L185.656 16.3033L186.426 16.1649L186.433 16.1637Z" fill="white"/>
<defs>
<clipPath id="clip0_1261_223009">
<rect width="127" height="127" fill="white" transform="translate(0 77.999)"/>
</clipPath>
</defs>
</svg>
