<svg width="281" height="370" viewBox="0 0 281 370" fill="none" xmlns="http://www.w3.org/2000/svg">
<path d="M138.565 33.4592C139.123 33.738 139.402 33.738 139.959 34.0168C140.517 34.2957 141.075 34.8533 141.632 35.4109C142.748 36.2474 144.142 36.8051 145.536 37.3627C146.372 37.6415 147.767 38.478 148.324 37.6415C149.718 35.6898 151.949 34.5745 153.622 32.6227C154.737 31.2286 155.852 29.2768 156.689 27.6039C157.247 26.4886 157.804 25.3733 158.083 24.258C158.362 23.7003 158.362 23.1427 158.362 22.585C158.362 21.7486 158.362 20.9121 158.083 20.3544C157.804 18.9603 157.525 17.2874 156.689 16.1721C155.574 14.2203 153.343 13.105 151.112 12.8262C149.44 12.8262 148.045 13.105 146.651 14.2203C145.815 15.0568 144.142 16.7297 144.142 18.1238C143.305 16.7297 142.19 15.3356 140.517 14.7779C138.565 13.6626 136.056 13.9415 134.383 15.0568C133.825 15.6144 133.268 15.8932 132.989 16.4509C131.874 17.845 130.758 19.518 130.479 21.1909C130.201 23.1427 131.037 24.8156 132.152 26.2097C134.104 28.4403 136.056 32.3439 138.565 33.4592Z" fill="#FF7D00"/>
<path d="M174.255 64.4084C182.898 63.572 193.215 57.159 200.464 53.8131C210.502 49.3519 221.655 45.1696 230.856 38.7566C233.366 37.0836 246.47 29.5554 244.24 24.8154C241.452 19.5177 228.904 27.6036 226.395 28.9977C207.714 39.3142 189.311 48.2366 173.418 62.4567C172.582 63.2931 173.14 64.6873 174.255 64.4084Z" fill="#FF7D00"/>
<path d="M172.861 46.2848C181.783 37.3624 189.869 27.8824 196.561 17.2871C198.513 13.9412 204.089 6.41294 203.531 2.50939C202.974 -2.50945 199.349 2.23057 197.397 4.46116C188.754 14.4988 180.389 25.0942 172.582 35.9683C170.63 38.4777 163.938 46.5636 165.611 50.4672C167.005 54.0919 170.63 48.2366 172.861 46.2848Z" fill="#FF7D00"/>
<path d="M241.452 88.3872C228.068 87.2719 214.406 86.7143 201.022 86.7143C197.676 86.7143 187.36 85.8778 185.129 89.5025C183.177 92.8484 189.869 92.5696 192.936 92.8484C205.483 95.079 217.751 95.9155 230.299 95.079C234.202 94.8002 243.403 94.8002 246.47 92.0119C250.653 88.666 244.519 88.666 241.452 88.3872Z" fill="#FF7D00"/>
<path d="M209.944 66.0817C207.435 66.9182 197.397 71.1005 202.695 74.4464C205.483 76.1194 215.242 74.4464 218.309 73.8888C220.818 73.3311 230.856 68.0335 225.001 65.5241C219.982 63.0146 215.242 64.1299 209.944 66.0817Z" fill="#FF7D00"/>
<path d="M191.821 105.674C189.311 104.001 180.11 98.7037 181.783 105.674C182.062 107.347 187.638 113.481 189.032 114.597C190.427 115.712 198.791 119.615 198.513 114.597C198.234 110.414 195.445 108.184 191.821 105.674Z" fill="#FF7D00"/>
<path d="M-59.4 163.949L-32.3541 196.293C-32.3541 196.293 -17.8552 175.102 -0.289249 189.322C17.5555 203.542 5.00842 232.54 3.33546 249.269C1.38369 270.739 6.40253 287.747 15.0461 301.688C25.9202 319.254 51.2933 333.753 78.6181 338.772C80.5698 339.051 82.8004 339.329 84.7522 339.608L87.5404 369.721H107.895L110.683 340.445C157.804 336.541 224.443 290.535 194.609 213.022C180.947 177.332 151.949 124.077 151.949 124.077H152.228C163.66 121.289 165.89 106.232 152.507 98.4252L161.987 89.5028L148.045 83.6475L153.343 64.6874L123.23 76.6769C123.23 76.6769 115.702 60.7839 103.991 60.7839C94.2322 60.7839 89.771 67.7545 89.771 67.7545C89.771 67.7545 87.2616 60.505 80.5698 58.5533C73.878 56.6015 63.0039 60.505 61.6098 72.4945C59.9368 86.1569 71.0898 93.1275 74.7145 94.2428C78.8969 95.6369 85.031 98.4252 97.2993 93.1275C97.2993 105.675 97.2993 134.394 97.2993 148.892C97.2993 167.574 98.9722 198.244 90.8863 214.695C82.8004 231.146 73.5992 238.116 61.3309 236.722C47.6685 235.049 43.2074 222.502 47.6685 198.802C52.4086 175.102 56.3121 151.681 36.5156 134.115C17.2767 116.27 -18.134 114.318 -59.4 163.949ZM126.297 88.1087C129.364 86.4357 133.268 88.1087 134.941 91.4546C136.614 94.8004 135.777 98.9828 132.71 100.656C129.643 102.329 125.739 100.656 124.066 97.3099C122.115 93.6852 123.23 89.5028 126.297 88.1087Z" fill="#FF7D00"/>
<path fill-rule="evenodd" clip-rule="evenodd" d="M121.9 352.902H125.462V362.566H127.075V352.902H130.656V351.5H121.919L121.9 352.902ZM134.462 351.534L138.231 359.453L142 351.534H144.1V362.6H142.562V353.706L139 361.078H137.481L133.919 353.723V362.6H132.362V351.534H134.444H134.462Z" fill="#FF7D00"/>
</svg>
