<svg width="38" height="38" viewBox="0 0 38 38" fill="none" xmlns="http://www.w3.org/2000/svg">
<path d="M4.51006 4.75H33.4899C34.6284 4.75 35.5599 3.68125 35.5599 2.375C35.5599 1.06875 34.6284 0 33.4899 0H4.51006C3.37157 0 2.44007 1.06875 2.44007 2.375C2.44007 3.68125 3.37157 4.75 4.51006 4.75ZM35.8911 9.025C35.7048 7.9325 34.8561 7.125 33.8625 7.125H4.13747C3.14387 7.125 2.29517 7.9325 2.10887 9.025L0.0388837 20.9C-0.209515 22.3725 0.763381 23.75 2.06747 23.75H2.44007V35.625C2.44007 36.9313 3.37157 38 4.51006 38H21.07C22.2085 38 23.14 36.9313 23.14 35.625V23.75H31.4199V35.625C31.4199 36.9313 32.3514 38 33.4899 38C34.6284 38 35.5599 36.9313 35.5599 35.625V23.75H35.9325C37.2366 23.75 38.2095 22.3725 37.9611 20.9L35.8911 9.025ZM19 33.25H6.58006V23.75H19V33.25Z" fill="#1F1F1F"/>
</svg>
