<svg width="109" height="147" viewBox="0 0 109 147" fill="none" xmlns="http://www.w3.org/2000/svg">
<g clip-path="url(#clip0)">
<path d="M77.5429 106.283C78.1166 103.512 78.5947 100.74 79.264 98.0635C79.9333 95.2918 80.6982 91.373 80.985 90.704C81.2719 90.1305 81.4631 89.557 81.6543 88.888C82.1324 87.6455 82.5149 86.3074 82.8973 85.0648C83.6622 82.1975 84.4271 79.3301 85.0964 76.4628C85.6701 74.0733 85.7657 71.4927 85.3833 69.0076C85.2877 68.3386 85.192 67.5739 84.714 67.0005C84.4271 66.6182 83.6622 65.8535 83.2798 65.9491C83.0885 66.0447 82.3236 67.2872 82.1324 67.5739C81.8456 68.0518 81.5587 68.6253 81.3675 69.1032C80.985 70.4413 80.6982 71.7794 80.4114 73.0219C80.1245 74.4556 79.9333 75.7937 79.9333 77.2274C79.9333 78.5655 80.1245 79.808 79.7421 81.0505C79.4552 81.9108 79.1684 82.4842 79.0728 83.44C78.9771 84.3002 78.8815 85.1604 78.7859 86.1162C78.5947 87.1676 78.1166 88.1234 77.9254 89.1747C77.6385 90.5128 77.3517 91.9465 77.0649 93.2846C76.4912 96.2475 75.535 99.1149 75.4394 102.078C75.4394 103.512 74.7701 104.85 74.4833 106.283C74.1964 107.717 74.0052 109.151 74.0052 110.584C74.0052 113.643 72.8578 116.606 72.1885 119.569C71.5192 122.436 70.9456 125.303 70.5631 128.171C70.3719 129.509 70.4675 130.943 70.2763 132.281C69.9894 133.523 69.4157 134.766 69.3201 136.008C68.9377 138.78 68.5552 141.456 68.364 144.132C68.364 144.706 67.5035 146.904 68.6508 146.713C69.7982 146.522 69.9894 144.324 70.085 143.463C70.1807 141.839 70.085 140.118 70.1807 138.493C70.2763 137.06 70.9456 135.913 71.4236 134.575C72.6666 131.421 73.0491 128.171 73.7184 124.921C74.0052 123.392 74.3877 121.863 74.4833 120.238C74.5789 118.613 74.7701 117.084 75.057 115.459C75.3438 113.93 75.7263 112.305 76.1087 110.776C76.3956 109.533 77.1605 107.908 77.5429 106.283Z" fill="white"/>
<path d="M61.7668 61.2655C62.9142 61.1699 63.8704 61.1699 65.1133 61.3611C65.687 61.4567 66.1651 61.5523 66.7388 61.6478C68.8423 62.0302 70.9458 62.3169 73.0493 62.6992C75.2484 63.0815 77.5432 63.4638 79.8379 63.5594C81.3677 63.655 82.8019 63.655 84.3318 63.5594C85.3835 63.4638 86.3397 63.3683 87.3914 63.4638C88.3475 63.4638 89.2081 63.7506 90.1642 63.5594C90.5467 63.4638 90.7379 63.0815 90.5467 62.7948C90.4511 62.6992 90.3554 62.6036 90.2598 62.6992C88.4432 62.8904 86.7221 62.3169 85.0011 62.2213C82.9932 62.1257 80.9853 62.1257 78.9774 61.9346C73.9098 61.3611 68.9379 59.9274 63.8704 58.9716C61.1932 58.4937 58.4204 58.1114 55.6475 57.8247C53.066 57.538 50.3888 57.4424 47.8072 57.0601C45.7037 56.7733 43.6958 56.8689 41.5923 56.5822C39.3932 56.2954 37.2896 55.8175 35.1861 55.1485C33.3695 54.575 31.6484 53.906 29.8318 53.4281C28.3019 53.0458 26.7721 52.759 25.2423 52.5679C19.123 51.7077 12.9081 51.1342 6.69316 50.6563H6.59755C6.02386 50.6563 5.35456 50.6563 4.78088 50.5607C3.63351 50.4651 4.39842 49.127 4.39842 48.458C4.39842 47.2155 4.11158 45.9729 4.01597 44.7304C4.01597 43.3923 4.11158 42.1498 4.11158 40.8117C4.11158 38.709 4.68527 36.7018 5.06772 34.5991C5.45018 32.6875 5.64141 30.6804 5.06772 28.6732C4.97211 28.482 5.06772 28.2909 4.97211 28.0997C4.78088 27.0484 4.87649 26.0926 4.58965 25.0412C4.39842 24.2766 3.72913 23.4164 4.39842 22.7473C5.06772 22.0783 5.35456 22.2694 6.21509 22.4606C7.07562 22.7473 8.03176 22.7473 8.89228 22.8429C9.56158 22.9385 10.6133 23.1296 11.187 23.4164C12.8125 23.9898 14.4379 24.6589 16.1589 25.1368C17.88 25.6147 19.4098 26.1882 21.3221 25.997C22.2782 25.9014 23.4256 26.3793 24.2861 26.5705C25.7204 26.9528 27.2502 27.2395 28.6844 27.6218C30.023 27.9086 31.266 28.2909 32.6046 28.5776C34.4212 28.9599 36.3335 29.4378 38.1502 29.629C39.68 29.8201 41.1142 30.0113 42.4528 30.6804C42.9309 30.8715 43.5046 31.0627 44.0782 31.0627C47.9984 31.5406 51.9186 32.0185 55.8388 32.8787C56.3168 32.9742 56.7949 33.0698 57.1774 33.261C58.3247 33.7389 59.4721 34.0256 60.6195 34.0256C62.2449 34.0256 63.7747 34.2168 65.3046 34.7902C66.6432 35.2681 68.0774 35.5549 69.6072 35.6504C71.5195 35.746 73.4318 35.9372 75.2484 36.5107C77.1607 37.1797 79.1686 37.8488 81.0809 38.5178C83.3756 39.2824 85.6703 39.7603 88.1563 40.0471C89.5905 40.2382 91.0247 40.4294 92.4589 40.8117C92.937 40.9073 96.2835 41.7675 96.2835 41.2896C96.2835 40.9073 95.9967 40.3338 95.8054 40.1426C95.3274 39.6647 94.5625 39.378 93.9888 39.1869C92.3633 38.5178 90.6423 38.3266 88.9212 38.0399C87.6783 37.8488 86.6265 37.562 85.4791 36.9885C83.1844 35.8416 80.6984 35.2681 78.2125 34.6947C75.7265 34.1212 73.1449 33.5477 70.659 33.0698C68.0774 32.5919 65.5914 31.9229 62.9142 31.7317C62.2449 31.7317 61.5756 31.6361 60.8107 31.445C59.6633 31.2538 58.6116 31.0627 57.4642 30.7759C55.8388 30.4892 54.2133 30.1069 52.5879 29.9157C50.3888 29.7246 48.2853 29.629 46.1818 29.1511C44.4607 28.7688 42.7397 28.3865 41.0186 28.0041C38.1502 27.3351 35.3774 26.5705 32.5089 26.0926C32.5089 26.0926 32.5089 26.0926 32.4133 26.0926C28.8756 25.6147 25.2423 24.9456 21.8002 24.181C19.9835 23.7987 18.2625 23.3208 16.4458 22.8429C14.8204 22.365 13.2905 21.7915 11.5695 21.7915C11.4739 21.7915 11.2826 21.7915 11.187 21.7915C10.9958 21.696 10.8046 21.5048 10.6133 21.3136C9.84842 20.4534 9.08351 19.4976 8.03176 19.0198C6.78877 18.4463 5.16334 18.5419 3.82474 18.4463C2.58176 18.3507 2.1993 18.733 1.81684 19.7844C1.33877 21.0269 2.58176 24.9456 1.91246 26.0926C1.72123 26.4749 1.62562 26.8572 1.62562 27.3351C1.62562 28.0041 1.62562 28.7688 1.72123 29.5334C1.91246 31.2538 1.72123 32.9742 1.14755 34.6947C0.478248 36.5106 0.191406 38.5178 0.191406 40.525C0.191406 41.8631 0.28702 43.2012 0.191406 44.4437C0.191406 45.5906 0.28702 46.642 0.669476 47.6934C0.860704 48.0757 0.956318 48.5536 0.860704 48.9359C0.478248 50.6563 1.24316 53.5237 2.8686 54.3839C3.05983 54.4794 3.15544 54.575 3.34667 54.4794C3.72913 54.4794 4.2072 53.7148 4.39842 53.4281C4.49404 53.1413 4.39842 52.759 4.78088 52.5679C5.25895 52.6634 5.64141 52.8546 6.02386 53.1413C7.07562 54.2883 8.70106 53.8104 10.0397 54.0015C11.9519 54.2883 13.9598 54.6706 15.8721 54.9573C18.9318 55.4352 21.9914 55.9131 24.9554 56.391C25.3379 56.4866 25.7204 56.4866 26.1028 56.5822C26.5809 56.5822 27.1546 56.7733 27.7282 56.8689C28.3975 56.9645 29.0668 57.0601 29.7361 57.1556C31.0747 57.3468 32.4133 57.6335 33.7519 57.8247C34.7081 58.0159 35.5686 58.1114 36.5247 58.207C37.6721 58.3026 38.8195 58.3026 40.0625 58.3982C44.9388 58.6849 49.7195 59.8318 54.5002 60.7876C56.6993 61.1699 58.994 61.6478 61.1932 61.4567C61.1932 61.3611 61.48 61.2655 61.7668 61.2655Z" fill="white"/>
<path d="M107.757 28.0042C107.661 27.9086 107.661 27.813 107.566 27.813C107.183 27.4307 106.61 27.3351 106.036 27.144C105.462 26.9528 104.889 26.8572 104.315 26.8572C103.646 26.8572 102.976 27.0484 102.403 27.4307C101.925 27.7175 101.542 28.2909 101.447 28.8644C101.925 28.6732 102.498 28.3865 102.307 28.3865C102.116 28.3865 101.829 28.2909 101.638 28.2909C101.351 28.1953 101.064 28.1953 100.873 28.1953C99.4387 28.0042 98.1001 27.7175 96.7615 27.3351C95.2317 26.9528 93.7018 26.4749 92.172 25.8059C89.3992 24.6589 86.8176 23.2253 83.9492 22.2695C80.8896 21.2181 77.6387 21.0269 74.3878 20.9314C72.7624 20.9314 71.2326 20.9314 69.6071 21.0269C69.129 21.0269 68.7466 21.0269 68.2685 21.1225C67.9817 21.1225 67.5992 21.1225 67.3124 21.1225L67.5992 21.2181C67.5992 21.2181 67.5036 21.0269 67.5036 20.9314C67.408 20.8358 67.408 20.7402 67.3124 20.6446C66.9299 20.1667 66.4519 19.6888 65.8782 19.4021C65.2089 19.1154 64.5396 18.9242 63.8703 18.9242C63.2966 18.8286 62.7229 18.9242 62.2448 19.1154C60.4282 19.7844 60.3326 21.6004 60.715 23.3208C61.0019 24.4678 62.2448 26.2838 63.3922 26.5705C63.8703 26.7617 64.444 26.6661 64.922 26.5705C66.0694 26.1882 66.9299 25.2324 67.408 24.0855C67.5036 23.8943 67.5036 23.7031 67.5992 23.4164C67.5992 23.3208 67.6948 23.2253 67.5992 23.2253C67.5036 23.2253 67.3124 23.3208 67.3124 23.3208C67.408 23.3208 67.6948 23.4164 67.6948 23.4164C67.8861 23.4164 67.9817 23.512 68.1729 23.512C68.3641 23.6076 68.651 23.6076 68.8422 23.7031C69.3203 23.8943 69.7983 24.0855 70.1808 24.181C71.9018 24.6589 73.7185 25.1368 75.4396 25.6147C79.9334 26.7617 84.5229 28.0042 89.1124 28.7688C89.208 28.7688 90.451 29.0556 90.451 29.1511C90.451 29.0556 90.3554 28.7688 90.3554 28.7688C90.2597 29.3423 90.1641 29.8202 90.0685 30.2981C89.9729 30.776 89.7817 31.2539 89.6861 31.7318C89.4948 32.8787 89.3992 33.9301 89.3992 35.077C89.3992 35.8416 90.5466 36.0328 90.7378 35.2682C90.8334 34.8859 90.929 34.5035 91.0247 34.1212C91.3115 33.261 91.5027 32.4008 91.7896 31.5406C91.8852 31.1583 91.9808 30.776 92.0764 30.3937C92.172 30.0113 92.172 29.629 92.3632 29.2467C92.2676 29.3423 92.172 29.3423 91.9808 29.4379C91.9808 29.4379 92.172 29.4379 92.2676 29.5334C92.3632 29.5334 92.4589 29.5334 92.5545 29.629C92.7457 29.629 93.0325 29.7246 93.2238 29.7246C93.8931 29.8202 94.4668 30.0113 95.1361 30.1069C95.9966 30.2025 96.7615 30.2025 97.622 30.2981C98.3869 30.3937 99.2475 30.776 100.012 30.9671C99.6299 30.776 99.3431 30.4892 99.1518 30.1069C99.2475 30.3937 99.1518 31.2539 99.1518 31.5406C99.1518 32.3052 98.9606 32.9743 98.865 33.7389C98.6738 35.1726 98.3869 36.5107 98.1957 37.9444C97.0483 44.5393 95.5185 51.1342 94.2755 57.7292C93.6062 61.3611 92.9369 64.9931 92.2676 68.6251C91.3115 73.6908 90.3554 78.852 89.3992 83.9177C89.6861 88.0276 87.5826 93.5712 86.8176 97.681C85.9571 102.46 85.001 107.143 84.1404 111.922C82.4194 121.098 80.2203 130.369 79.6466 139.64C79.6466 140.214 78.8817 142.221 79.8378 142.316C80.6983 142.412 81.1764 140.596 81.272 140.022C81.7501 137.442 81.0808 134.001 82.8975 134.288C83.6624 134.383 83.0887 136.104 83.9492 136.39C85.2878 136.773 85.3834 133.714 85.5747 132.854C86.3396 129.413 87.1045 125.877 87.8694 122.436C88.1562 121.002 88.5387 119.473 88.6343 118.039C88.8255 116.223 88.6343 114.503 88.7299 112.687C88.8255 106.188 90.7378 99.8794 92.172 93.4756C93.7975 86.2116 94.0843 78.5653 96.0922 71.4925C96.5703 69.8676 97.4308 68.3384 97.7176 66.618C97.9089 65.2799 97.8133 63.9418 97.8133 62.6037C97.8133 61.0744 97.9089 59.5452 98.1957 58.0159C98.2913 57.1557 98.4825 56.3911 98.5782 55.5308C98.7694 53.906 98.3869 52.2812 98.5782 50.7519C98.865 48.458 99.4387 46.2597 99.9168 44.0614C100.395 41.8631 100.204 39.6648 100.682 37.4665C100.873 36.4151 100.969 35.2682 101.064 34.2168C101.16 33.7389 101.16 33.261 101.255 32.7831C101.351 32.2097 101.447 31.7318 101.733 31.1583C101.733 31.1583 101.447 30.9671 101.351 30.9671C101.447 30.9671 101.733 31.8273 101.829 31.9229C101.925 32.2097 102.116 32.4964 102.307 32.7831C102.498 33.3566 103.072 33.6433 103.454 34.0256C103.933 34.408 104.506 34.7903 105.176 34.8859C105.749 34.9814 106.323 34.7903 106.801 34.5035C108.618 33.4522 109.191 31.1583 108.618 29.2467C108.14 28.5777 107.948 28.1953 107.757 28.0042Z" fill="white"/>
<path d="M90.26 19.4023C90.4512 19.689 90.7381 19.9757 90.9293 20.2625C91.7898 21.3138 92.746 22.2696 93.7021 23.321C94.6582 24.2768 95.4231 24.8502 96.7617 24.9458C98.196 25.0414 99.7258 25.137 101.064 24.5635C101.829 24.1812 102.499 23.6077 103.264 23.7989C103.455 23.7989 103.646 23.8945 103.837 23.8945C104.315 23.99 104.793 23.6077 105.08 23.2254C105.367 22.8431 105.463 22.3652 105.749 21.8873C106.514 20.358 108.331 19.4978 108.809 17.7774C109.383 15.8659 108.331 13.7631 108.044 11.8515C107.757 9.93997 106.897 8.50629 105.941 6.88146C105.558 6.30798 105.271 5.63893 104.698 5.25662C104.315 4.96988 103.933 4.96988 103.55 4.8743C103.168 4.8743 102.977 4.49199 103.168 4.20525C103.837 2.48484 103.264 0.668843 101.351 0.095371C100.491 -0.191365 99.4389 -0.0957863 98.674 0.382107C97.7179 0.955579 97.6223 1.91137 97.7179 2.86715C97.7179 3.15389 97.431 3.44062 97.1442 3.44062C95.4231 3.24947 93.8933 3.34505 92.1723 4.10968C90.6424 4.77873 88.8258 5.92567 88.3477 7.64609C87.774 9.55766 88.0609 12.1383 88.2521 14.1454C88.3477 16.057 89.1126 17.7774 90.26 19.4023ZM90.6424 13.2852C90.6424 11.2781 91.981 8.88861 93.3196 7.45493C95.0407 5.63893 97.6223 6.11683 99.8214 6.49914C102.021 6.88146 104.124 6.97704 105.367 9.07977C106.132 10.5134 106.61 12.0427 106.61 13.6675C106.61 14.8145 105.845 15.7703 104.793 16.1526C103.837 16.4393 102.881 16.9172 102.212 16.2482C101.542 15.5791 101.925 14.6233 101.542 13.8587C101.064 12.9985 100.013 13.1896 99.1521 13.3808C98.0047 13.6675 96.8574 14.1454 96.2837 15.2924C95.5188 16.8216 97.3354 20.358 94.8495 20.1669C94.467 20.1669 94.1802 19.8802 93.7977 19.689C93.5109 19.4978 93.1284 19.3067 92.8416 19.1155C91.1205 17.7774 90.5468 15.388 90.6424 13.2852Z" fill="white"/>
<path d="M88.3475 54.9573C87.5826 54.8617 86.9133 55.244 86.7221 56.0087C86.6265 56.7733 87.1045 57.4423 87.8695 57.6335C88.6344 57.7291 89.3037 57.3468 89.4949 56.5821C89.5905 55.8175 89.0168 55.0529 88.3475 54.9573ZM87.8695 57.4423C87.2002 57.3468 86.8177 56.7733 87.0089 56.1042C87.1045 55.4352 87.6782 55.0529 88.3475 55.1485C88.9212 55.244 89.3993 55.8175 89.208 56.4866C89.0168 57.1556 88.4431 57.5379 87.8695 57.4423Z" fill="white"/>
<path d="M88.8258 56.1041C88.9214 55.7218 88.7302 55.6262 88.2521 55.5306L87.6784 55.4351L87.3916 56.9643L87.6784 57.0599L87.7741 56.3908H87.9653L88.2521 57.1555L88.539 57.2511L88.2521 56.4864C88.539 56.4864 88.7302 56.3908 88.8258 56.1041ZM87.8697 56.1041L87.9653 55.7218L88.2521 55.8174C88.4434 55.8174 88.539 55.913 88.539 56.1041C88.539 56.2953 88.3477 56.2953 88.1565 56.2953L87.8697 56.1041Z" fill="white"/>
<path d="M84.6187 49.8917C84.045 49.5094 83.2801 49.1271 82.802 48.7448C82.3239 48.4581 82.2283 48.1713 82.2283 47.789C82.3239 47.3111 82.802 47.2155 83.3757 47.3111C84.3318 47.5023 84.9055 48.0758 85.4792 48.8404L87.8696 47.12C87.2003 45.7819 85.8617 44.8261 83.9494 44.4438C81.3678 43.9659 79.1687 44.8261 78.6906 47.3111C78.3082 49.2227 79.0731 50.3696 80.7941 51.421C81.2722 51.7077 81.9415 52.0901 82.4196 52.3768C82.802 52.6635 83.0889 52.8547 82.9932 53.237C82.8976 53.6193 82.6108 53.8105 81.7503 53.6193C80.9854 53.4282 79.838 52.9503 79.1687 52.2812L77.4476 54.5751C78.4994 55.6265 79.838 56.1999 81.2722 56.4867C83.4713 56.869 86.0529 56.3911 86.531 53.8105C86.9134 51.8033 85.8617 50.6564 84.6187 49.8917ZM16.0634 31.923C14.7248 31.6362 12.4301 31.3495 11.3783 31.2539L10.9003 34.2168L11.8564 34.3124L10.231 43.3924L13.8643 44.0614L14.2467 41.7676C19.6011 42.4366 21.3222 39.856 21.7046 37.8488C22.2783 35.0771 20.2704 32.8787 16.0634 31.923ZM14.8204 38.9002L15.5853 34.8859C17.8801 35.4594 18.2625 36.5107 18.0713 37.2754C17.8801 38.5179 16.9239 39.2825 14.8204 38.9002ZM52.3011 38.709C48.7634 38.04 45.895 40.1427 45.2257 43.6791C44.5564 47.2155 46.3731 50.1785 50.3889 50.9431C52.2055 51.2298 53.831 51.1343 55.2652 50.3696L54.309 47.5023C53.2573 47.9802 52.2055 48.1713 51.0582 47.9802C49.5283 47.6934 48.7634 46.8332 48.6678 45.5907L56.4125 47.0244C56.5082 46.6421 56.6994 46.0686 56.795 45.3996C57.2731 42.8189 56.6038 39.4737 52.3011 38.709ZM49.1459 43.1057C49.6239 41.9587 50.4845 41.2897 51.7274 41.5764C52.8748 41.7676 53.6397 42.6278 53.5441 43.9659L49.1459 43.1057ZM28.9713 34.5036C25.6248 33.9301 22.3739 35.8417 21.8003 39.3781C21.131 42.9145 23.5213 45.8774 26.7722 46.4509C30.1187 47.0244 33.3696 45.1128 33.9432 41.5764C34.6125 38.1356 32.3178 35.0771 28.9713 34.5036ZM27.4415 43.2968C25.816 43.0101 25.0511 41.5764 25.338 40.0471C25.6248 38.5179 26.8678 37.4665 28.4932 37.7533C30.1187 38.04 30.8836 39.4737 30.5967 41.0029C30.3099 42.5322 29.0669 43.5836 27.4415 43.2968ZM65.0178 41.4808L61.8625 45.973L60.6196 40.7162L56.6994 40.0471L59.3766 49.2227L58.8029 52.3768L62.5318 53.0458L63.1055 49.7006L69.0336 42.1499L65.0178 41.4808ZM39.5845 36.3196C38.2459 36.0328 35.9511 35.7461 34.995 35.6505L34.5169 38.5179L35.4731 38.6135L33.8476 47.5979L37.481 48.2669L37.8634 45.973C43.1222 46.6421 44.9389 44.0614 45.2257 42.1499C45.7038 39.4737 43.7915 37.2754 39.5845 36.3196ZM38.3415 43.2968L39.1064 39.3781C41.4011 39.856 41.7836 41.0029 41.5924 41.7676C41.3055 42.8189 40.445 43.5836 38.3415 43.2968ZM73.6231 42.5322C70.0854 41.8631 67.2169 43.9659 66.6432 47.5023C65.9739 51.0387 67.8862 54.0016 71.8064 54.7663C73.4318 55.053 74.9617 54.9574 76.3003 54.3839L75.4397 51.421C74.4836 51.8033 73.5275 51.9945 72.4757 51.8033C71.0415 51.5166 70.2766 50.6564 70.0854 49.4139L77.8301 50.8475C77.9257 50.4652 78.1169 49.8917 78.2125 49.2227C78.595 46.7377 77.9257 43.2968 73.6231 42.5322ZM70.4678 46.9288C70.9459 45.7819 71.8064 45.1128 73.0494 45.3996C74.1968 45.5907 74.9617 46.4509 74.8661 47.789L70.4678 46.9288Z" fill="white"/>
</g>
<defs>
<clipPath id="clip0">
<rect width="109" height="147" fill="white"/>
</clipPath>
</defs>
</svg>
