<svg width="194" height="30" viewBox="0 0 194 30" fill="none" xmlns="http://www.w3.org/2000/svg">
<g clip-path="url(#clip0_1770_347624)">
<path d="M101.232 7.67394C104.082 7.67394 106.244 9.33099 106.441 12.3526L95.6302 12.3535V12.3526C96.3183 9.52526 98.1856 7.67394 101.232 7.67394ZM153.711 7.67394C156.659 7.67394 158.723 9.33099 159.018 12.3526L148.207 12.3535V12.3526C148.895 9.52526 150.665 7.67394 153.711 7.67394ZM11.9 7.67394C17.6 7.96617 18.9757 10.3057 18.9757 12.2547C18.9757 15.081 17.1083 17.2249 11.9 17.3224V7.67394ZM69.8822 7.86844C75.484 8.16149 76.8599 10.5003 76.8599 12.4492C76.8599 15.1779 74.993 17.3224 69.8822 17.42V7.86844ZM43.9378 8.55133C47.8684 8.55133 50.4235 11.5721 50.4235 15.2755C50.4235 19.0766 47.8684 22.0975 43.9378 22.0975C39.9085 22.0975 37.3532 19.0766 37.3532 15.2755C37.3532 11.5721 39.9085 8.55133 43.9378 8.55133ZM191.018 26.541L191.01 26.5412C191.011 26.541 191.012 26.541 191.014 26.541H191.018ZM190.786 26.5763L190.974 26.5765V26.5769H191.01C191.044 26.5767 191.076 26.5767 191.107 26.5767C191.214 26.5767 191.286 26.5776 191.3 26.5786V26.579C191.422 26.588 191.496 26.6166 191.543 26.6642V26.6644C191.59 26.7113 191.614 26.7741 191.614 26.874C191.614 27.0124 191.569 27.0943 191.481 27.1387C191.46 27.1498 191.416 27.1652 191.389 27.1705C191.327 27.1826 191.287 27.1859 191.093 27.1859C191.043 27.1859 191.048 27.1859 190.99 27.1857V27.1859L190.787 27.1851L190.786 26.8805V26.5763ZM191.69 27.541L191.691 27.5425V27.5429L191.69 27.541L191.689 27.5415C191.689 27.541 191.689 27.541 191.689 27.541H191.69ZM190.639 26.0998V26.1003C190.631 26.1003 190.623 26.1003 190.614 26.1003C190.441 26.1003 190.301 26.1023 190.301 26.1023V26.1027L190.266 26.1029V26.1376C190.265 26.6991 190.265 27.3998 190.265 27.3998L190.266 28.6586V28.6937L190.302 28.6939L190.526 28.6947V28.6949L190.749 28.6951H190.786V28.6598V28.1408V28.141L190.787 27.6567L190.986 27.6561V27.6565L191.195 27.6557L191.197 27.6561C191.234 27.7452 191.466 28.3172 191.568 28.5663V28.5666L191.611 28.6729L191.62 28.6951L191.644 28.6953L191.892 28.6951L191.894 28.6953C192.09 28.6951 192.141 28.6918 192.142 28.6918L192.192 28.6883L192.172 28.6425L191.782 27.7522C191.748 27.6719 191.721 27.609 191.705 27.5737H191.703C191.809 27.5285 191.901 27.4659 191.967 27.3891C192.062 27.2802 192.114 27.1492 192.132 26.9838V26.9842L192.133 26.9705C192.138 26.9275 192.138 26.8158 192.133 26.7756C192.116 26.6143 192.071 26.489 191.988 26.3839C191.966 26.3555 191.908 26.2993 191.877 26.2767C191.746 26.1781 191.575 26.1245 191.345 26.104C191.314 26.1013 190.959 26.0998 190.675 26.0998H190.639ZM191.12 25.5315V25.5317H191.159L191.16 25.5322C191.16 25.5322 191.16 25.5322 191.162 25.5322C192.202 25.5322 193.044 26.3683 193.045 27.4V27.401C193.045 28.4339 192.2 29.271 191.159 29.271V29.2712C190.118 29.271 189.274 28.4339 189.274 27.401C189.274 26.382 190.096 25.5533 191.118 25.5315H191.12ZM10.4133 0.345238C7.06367 0.345238 2.53633 0.58637 0.5 0.754332L0.696552 7.77166L2.95679 7.67394V29.6993L11.9 29.7009V24.1441C24.9707 23.559 28.0169 16.7372 28.0169 11.962C28.0169 5.13985 22.3171 0.852171 11.9 0.3645C11.4435 0.351227 10.9431 0.345238 10.4133 0.345238ZM68.3944 0.63817C65.0657 0.63817 60.6159 0.878834 58.5808 1.04668L58.7773 8.06377L61.0375 7.86844V29.6993L69.8822 29.7009V24.2417C82.8546 23.6565 85.8031 16.8348 85.8031 12.1573C85.8031 5.33518 80.2012 1.14416 69.8822 0.657665C69.424 0.644276 68.9234 0.63817 68.3944 0.63817ZM121.869 1.82611L112.141 1.82775L122.459 21.9999V29.6993L131.796 29.7009V21.9999L142.705 1.82611L132.778 1.82775L127.177 13.6187L121.869 1.82611ZM191.12 25.0365V25.0374L191.118 25.0378C189.821 25.0585 188.775 26.108 188.775 27.3998V27.401C188.775 28.707 189.842 29.7656 191.159 29.7656C192.476 29.7656 193.543 28.707 193.543 27.401C193.543 26.0951 192.476 25.0365 191.159 25.0365H191.12ZM43.8393 0.949659C35.5842 0.949659 28.8033 6.89439 28.8033 15.3731C28.8033 23.8521 35.5842 29.7968 43.8393 29.7968C52.0945 29.7968 58.8755 23.8521 58.8755 15.3731C58.8755 6.89439 51.9963 0.949659 43.8393 0.949659ZM179.46 0.657665C173.169 0.657665 168.256 3.58076 168.256 9.52526C168.256 14.1062 170.516 16.348 174.939 18.297C176.217 18.7839 177.887 19.2711 179.165 19.7585C180.246 20.2461 180.933 20.7326 180.933 21.6103C180.933 22.3899 180.246 23.0724 178.083 23.0724C176.118 23.0724 173.269 22.293 171.204 21.0257L168.256 27.068C171.106 29.1147 174.545 29.8944 178.083 29.8944C183.587 29.8944 189.483 27.555 189.483 21.3178C189.483 16.6403 186.437 14.3982 183.194 13.1312C181.523 12.4492 179.656 11.7675 178.378 11.1823C177.2 10.6948 176.708 10.1104 176.708 9.33099C176.708 8.16149 177.887 7.57633 179.361 7.57633C181.621 7.57633 183.389 8.64893 184.962 10.3057L189.877 5.23758C187.812 2.41127 184.079 0.657665 179.46 0.657665ZM101.134 0.754332C92.584 0.754332 86.5888 6.89439 86.5888 15.3731C86.5888 23.7545 92.1907 30.0889 102.116 30.0889C106.539 30.0889 110.372 29.0172 113.516 26.6784L109.979 20.4406C107.718 21.9999 105.261 22.7796 102.411 22.8769C98.7755 22.8769 96.5149 21.1233 95.7287 18.2971H95.7297L114.696 18.298C114.892 16.9323 114.991 15.6653 114.991 14.3016C114.991 8.356 111.748 0.754332 101.134 0.754332ZM153.711 0.754332C145.063 0.754332 139.068 6.89439 139.068 15.3731C139.068 23.7545 144.866 30.0889 154.596 30.0889C158.626 30.0889 162.065 29.2117 165.013 27.2625L161.77 20.8302C159.706 22.1954 157.446 22.8769 154.89 22.8769C151.352 22.8769 149.092 21.2204 148.306 18.2971H148.308L167.273 18.298C167.47 16.9323 167.568 15.6653 167.568 14.3982C167.47 8.356 164.227 0.754332 153.711 0.754332Z" fill="white"/>
</g>
<defs>
<clipPath id="clip0_1770_347624">
<rect width="193.043" height="30" fill="white" transform="translate(0.5)"/>
</clipPath>
</defs>
</svg>
