<svg xmlns="http://www.w3.org/2000/svg" viewBox="0 0 24 24" height="24" width="24">
<path fill="#000" d="m2.4 8.79 1.85 2.25c0 0 .99-1.46 2.2-.48.93.75.65 2.11.42 3.23-.07.34-.14.65-.16.92-.14 1.48.22 2.67.81 3.62.75 1.21 2.49 2.21 4.36 2.57.14.03.28.05.42.06l.19 2.08h1.41l.19-2.03c3.23-.26 7.8-3.45 5.77-8.82-.94-2.47-2.92-6.16-2.92-6.16l.02-.01c.79-.2.94-1.23.02-1.78l.66-.61-.96-.4.36-1.32-2.06.82 0 0 0 0c0 0-.52-1.1-1.32-1.11-.67-.01-.98.48-.98.48 0 0-.18-.5-.64-.64-.46-.14-1.2.13-1.3.97-.11.94.65 1.42.89 1.5.02.01.05.02.07.02.29.1.69.23 1.48-.1 0 .44 0 1.17 0 1.92 0 .72 0 1.45 0 1.94 0 .19 0 .39 0 .6.01 1.28.03 2.97-.44 3.95-.55 1.14-1.18 1.62-2.02 1.52-.93-.11-1.25-.99-.93-2.63.32-1.63.6-3.26-.76-4.47-1.36-1.21-3.81-1.34-6.63 2.09zm12.75-5.25c.21-.11.48 0 .6.23.12.24.05.52-.16.63-.21.11-.48 0-.6-.24-.12-.24-.05-.52.16-.63z"></path>
</svg>
